<svg width="95" height="39" viewBox="0 0 95 39" fill="none" xmlns="http://www.w3.org/2000/svg">
<path d="M1.4 18C1 18 0.708333 17.9167 0.525 17.75C0.358333 17.5667 0.275 17.2917 0.275 16.925V2.1C0.275 1.73333 0.358333 1.45833 0.525 1.275C0.708333 1.09167 1 1 1.4 1H6.65C9.5 1 11.6667 1.68333 13.15 3.05C14.6333 4.41667 15.375 6.56667 15.375 9.5C15.375 12.4 14.625 14.5417 13.125 15.925C11.625 17.3083 9.46667 18 6.65 18H1.4ZM6.85 14.975C8.33333 14.975 9.44167 14.5667 10.175 13.75C10.9083 12.9167 11.275 11.5 11.275 9.5C11.275 7.5 10.9083 6.09167 10.175 5.275C9.44167 4.45833 8.33333 4.05 6.85 4.05H4.4V14.975H6.85ZM1.4 38C1 38 0.708333 37.9167 0.525 37.75C0.358333 37.5667 0.275 37.2917 0.275 36.925V22.1C0.275 21.7333 0.358333 21.4583 0.525 21.275C0.708333 21.0917 1 21 1.4 21H11.775C12.175 21 12.45 21.0833 12.6 21.25C12.75 21.4 12.825 21.6667 12.825 22.05V22.975C12.825 23.3583 12.75 23.6333 12.6 23.8C12.45 23.9667 12.175 24.05 11.775 24.05H4.4V27.975H9.55C9.95 27.975 10.225 28.0583 10.375 28.225C10.525 28.375 10.6 28.6417 10.6 29.025V29.95C10.6 30.3333 10.525 30.6083 10.375 30.775C10.225 30.9417 9.95 31.025 9.55 31.025H4.4V36.925C4.4 37.2917 4.31667 37.5667 4.15 37.75C3.98333 37.9167 3.69167 38 3.275 38H1.4Z" fill="#240046"/>
<path d="M17.0387 18C16.6387 18 16.347 17.9167 16.1637 17.75C15.997 17.5667 15.9137 17.2917 15.9137 16.925V2.1C15.9137 1.73333 15.997 1.45833 16.1637 1.275C16.347 1.09167 16.6387 1 17.0387 1H27.4137C27.8137 1 28.0887 1.08333 28.2387 1.25C28.3887 1.4 28.4637 1.66667 28.4637 2.05V2.975C28.4637 3.35833 28.3887 3.63333 28.2387 3.8C28.0887 3.96667 27.8137 4.05 27.4137 4.05H20.0387V8H25.1887C25.5887 8 25.8637 8.08333 26.0137 8.25C26.1637 8.4 26.2387 8.66667 26.2387 9.05V9.925C26.2387 10.3083 26.1637 10.5833 26.0137 10.75C25.8637 10.9167 25.5887 11 25.1887 11H20.0387V14.975H27.3887C27.7887 14.975 28.0637 15.0583 28.2137 15.225C28.3637 15.3917 28.4387 15.6667 28.4387 16.05V16.95C28.4387 17.3333 28.3637 17.6083 28.2137 17.775C28.0637 17.925 27.7887 18 27.3887 18H17.0387ZM35.0344 18C34.7677 18 34.5677 17.95 34.4344 17.85C34.301 17.75 34.176 17.5583 34.0594 17.275L27.7344 1.825C27.6844 1.675 27.6594 1.54167 27.6594 1.425C27.6594 1.14167 27.8094 1 28.1094 1H31.1094C31.3427 1 31.5177 1.05 31.6344 1.15C31.7677 1.25 31.8677 1.39167 31.9344 1.575L35.9344 12.3L39.9344 1.575C40.0677 1.19167 40.351 1 40.7844 1H43.7844C44.0844 1 44.2344 1.14167 44.2344 1.425C44.2344 1.54167 44.2094 1.675 44.1594 1.825L37.8594 17.275C37.7427 17.5583 37.6094 17.75 37.4594 17.85C37.326 17.95 37.126 18 36.8594 18H35.0344ZM44.4822 6.4C44.1156 6.4 43.9322 6.25833 43.9322 5.975C43.9322 5.90833 43.9489 5.80833 43.9822 5.675L45.2822 1.4C45.3822 1.08333 45.4989 0.874999 45.6322 0.775C45.7822 0.674999 46.0239 0.624999 46.3572 0.624999H48.0072C48.5239 0.624999 48.7822 0.774999 48.7822 1.075C48.7822 1.225 48.7322 1.41667 48.6322 1.65L46.8322 5.9C46.7656 6.06667 46.6656 6.19167 46.5322 6.275C46.3989 6.35833 46.2156 6.4 45.9822 6.4H44.4822ZM55.8537 18.375C54.5537 18.375 53.3037 18.2417 52.1037 17.975C50.9204 17.6917 49.962 17.3 49.2287 16.8C48.9787 16.6167 48.8537 16.45 48.8537 16.3C48.8537 16.2 48.8954 16.0833 48.9787 15.95L50.0037 14.325C50.1037 14.1583 50.212 14.075 50.3287 14.075C50.4287 14.075 50.5537 14.125 50.7037 14.225C51.3204 14.575 52.0287 14.8583 52.8287 15.075C53.6287 15.2917 54.437 15.4 55.2537 15.4C56.2204 15.4 56.937 15.25 57.4037 14.95C57.8704 14.6333 58.1037 14.1417 58.1037 13.475C58.1037 13.025 57.987 12.6583 57.7537 12.375C57.537 12.0917 57.2037 11.8417 56.7537 11.625C56.3204 11.4083 55.6454 11.125 54.7287 10.775C53.662 10.375 52.7537 9.96667 52.0037 9.55C51.2704 9.13333 50.662 8.6 50.1787 7.95C49.712 7.28333 49.4787 6.475 49.4787 5.525C49.4787 3.94167 50.0537 2.73333 51.2037 1.9C52.3537 1.05 53.8704 0.624999 55.7537 0.624999C58.237 0.624999 60.137 1.09167 61.4537 2.025C61.7037 2.225 61.8287 2.39167 61.8287 2.525C61.8287 2.625 61.787 2.74167 61.7037 2.875L60.6787 4.5C60.5787 4.66667 60.4704 4.75 60.3537 4.75C60.2537 4.75 60.1287 4.7 59.9787 4.6C58.962 3.93333 57.7287 3.6 56.2787 3.6C54.4787 3.6 53.5787 4.25 53.5787 5.55C53.5787 5.98333 53.6787 6.34167 53.8787 6.625C54.0954 6.89167 54.387 7.125 54.7537 7.325C55.1204 7.50833 55.6954 7.75 56.4787 8.05L57.1787 8.325C58.3954 8.80833 59.3537 9.26667 60.0537 9.7C60.7537 10.1167 61.287 10.6333 61.6537 11.25C62.037 11.8667 62.2287 12.6583 62.2287 13.625C62.2287 15.075 61.6787 16.2333 60.5787 17.1C59.4954 17.95 57.9204 18.375 55.8537 18.375ZM14.0113 38C13.6113 38 13.3197 37.9167 13.1363 37.75C12.9697 37.5667 12.8863 37.2917 12.8863 36.925V22.1C12.8863 21.7333 12.9697 21.4583 13.1363 21.275C13.3197 21.0917 13.6113 21 14.0113 21H20.3363C24.5697 21 26.6863 22.85 26.6863 26.55C26.6863 27.7333 26.4363 28.7417 25.9363 29.575C25.4363 30.3917 24.6947 31.0167 23.7113 31.45L26.3363 37.2C26.3863 37.3167 26.4113 37.4333 26.4113 37.55C26.4113 37.85 26.2363 38 25.8863 38H23.1113C22.878 38 22.703 37.975 22.5863 37.925C22.4697 37.8583 22.3697 37.725 22.2863 37.525L19.9863 32.025H17.0113V36.925C17.0113 37.2917 16.928 37.5667 16.7613 37.75C16.5947 37.9167 16.303 38 15.8863 38H14.0113ZM19.7363 29.05C20.6863 29.05 21.3947 28.85 21.8613 28.45C22.3447 28.05 22.5863 27.4167 22.5863 26.55C22.5863 25.6833 22.3697 25.05 21.9363 24.65C21.503 24.25 20.853 24.05 19.9863 24.05H17.0113V29.05H19.7363ZM28.3561 38C27.9561 38 27.6644 37.9167 27.4811 37.75C27.3144 37.5667 27.2311 37.2917 27.2311 36.925V22.1C27.2311 21.7333 27.3144 21.4583 27.4811 21.275C27.6644 21.0917 27.9561 21 28.3561 21H30.2311C30.6477 21 30.9394 21.0917 31.1061 21.275C31.2727 21.4417 31.3561 21.7167 31.3561 22.1V36.925C31.3561 37.2917 31.2727 37.5667 31.1061 37.75C30.9394 37.9167 30.6477 38 30.2311 38H28.3561ZM33.5211 38C33.1211 38 32.8294 37.9167 32.6461 37.75C32.4794 37.5667 32.3961 37.2917 32.3961 36.925V22.1C32.3961 21.7333 32.4794 21.4583 32.6461 21.275C32.8294 21.0917 33.1211 21 33.5211 21H43.8961C44.2961 21 44.5711 21.0833 44.7211 21.25C44.8711 21.4 44.9461 21.6667 44.9461 22.05V22.975C44.9461 23.3583 44.8711 23.6333 44.7211 23.8C44.5711 23.9667 44.2961 24.05 43.8961 24.05H36.5211V28H41.6711C42.0711 28 42.3461 28.0833 42.4961 28.25C42.6461 28.4 42.7211 28.6667 42.7211 29.05V29.925C42.7211 30.3083 42.6461 30.5833 42.4961 30.75C42.3461 30.9167 42.0711 31 41.6711 31H36.5211V34.975H43.8711C44.2711 34.975 44.5461 35.0583 44.6961 35.225C44.8461 35.3917 44.9211 35.6667 44.9211 36.05V36.95C44.9211 37.3333 44.8461 37.6083 44.6961 37.775C44.5461 37.925 44.2711 38 43.8711 38H33.5211ZM46.3766 38C45.9766 38 45.6849 37.9167 45.5016 37.75C45.3349 37.5667 45.2516 37.2917 45.2516 36.925V22.075C45.2516 21.7083 45.3349 21.4417 45.5016 21.275C45.6849 21.0917 45.9849 21 46.4016 21H47.9516C48.2349 21 48.4432 21.0417 48.5766 21.125C48.7266 21.1917 48.8849 21.3333 49.0516 21.55L56.0516 31.425V22.1C56.0516 21.7333 56.1349 21.4583 56.3016 21.275C56.4849 21.0917 56.7766 21 57.1766 21H59.0516C59.4682 21 59.7599 21.0917 59.9266 21.275C60.0932 21.4417 60.1766 21.7167 60.1766 22.1V36.925C60.1766 37.2917 60.0932 37.5667 59.9266 37.75C59.7599 37.9167 59.4682 38 59.0516 38H57.4766C57.2099 38 57.0016 37.9667 56.8516 37.9C56.7182 37.8167 56.5682 37.6667 56.4016 37.45L49.3766 27.6V36.925C49.3766 37.2917 49.2932 37.5667 49.1266 37.75C48.9599 37.9167 48.6682 38 48.2516 38H46.3766ZM62.357 38C61.957 38 61.6654 37.9167 61.482 37.75C61.3154 37.5667 61.232 37.2917 61.232 36.925V22.1C61.232 21.7333 61.3154 21.4583 61.482 21.275C61.6654 21.0917 61.957 21 62.357 21H67.607C70.457 21 72.6237 21.6833 74.107 23.05C75.5904 24.4167 76.332 26.5667 76.332 29.5C76.332 32.4 75.582 34.5417 74.082 35.925C72.582 37.3083 70.4237 38 67.607 38H62.357ZM67.807 34.975C69.2904 34.975 70.3987 34.5667 71.132 33.75C71.8654 32.9167 72.232 31.5 72.232 29.5C72.232 27.5 71.8654 26.0917 71.132 25.275C70.3987 24.4583 69.2904 24.05 67.807 24.05H65.357V34.975H67.807ZM76.2859 26.4C75.9193 26.4 75.7359 26.2583 75.7359 25.975C75.7359 25.9083 75.7526 25.8083 75.7859 25.675L77.0859 21.4C77.1859 21.0833 77.3026 20.875 77.4359 20.775C77.5859 20.675 77.8276 20.625 78.1609 20.625H79.8109C80.3276 20.625 80.5859 20.775 80.5859 21.075C80.5859 21.225 80.5359 21.4167 80.4359 21.65L78.6359 25.9C78.5693 26.0667 78.4693 26.1917 78.3359 26.275C78.2026 26.3583 78.0193 26.4 77.7859 26.4H76.2859ZM87.6574 38.375C86.3574 38.375 85.1074 38.2417 83.9074 37.975C82.7241 37.6917 81.7658 37.3 81.0324 36.8C80.7824 36.6167 80.6574 36.45 80.6574 36.3C80.6574 36.2 80.6991 36.0833 80.7824 35.95L81.8074 34.325C81.9074 34.1583 82.0158 34.075 82.1324 34.075C82.2324 34.075 82.3574 34.125 82.5074 34.225C83.1241 34.575 83.8324 34.8583 84.6324 35.075C85.4324 35.2917 86.2408 35.4 87.0574 35.4C88.0241 35.4 88.7408 35.25 89.2074 34.95C89.6741 34.6333 89.9074 34.1417 89.9074 33.475C89.9074 33.025 89.7908 32.6583 89.5574 32.375C89.3408 32.0917 89.0074 31.8417 88.5574 31.625C88.1241 31.4083 87.4491 31.125 86.5324 30.775C85.4658 30.375 84.5574 29.9667 83.8074 29.55C83.0741 29.1333 82.4658 28.6 81.9824 27.95C81.5158 27.2833 81.2824 26.475 81.2824 25.525C81.2824 23.9417 81.8574 22.7333 83.0074 21.9C84.1574 21.05 85.6741 20.625 87.5574 20.625C90.0408 20.625 91.9408 21.0917 93.2574 22.025C93.5074 22.225 93.6324 22.3917 93.6324 22.525C93.6324 22.625 93.5908 22.7417 93.5074 22.875L92.4824 24.5C92.3824 24.6667 92.2741 24.75 92.1574 24.75C92.0574 24.75 91.9324 24.7 91.7824 24.6C90.7658 23.9333 89.5324 23.6 88.0824 23.6C86.2824 23.6 85.3824 24.25 85.3824 25.55C85.3824 25.9833 85.4824 26.3417 85.6824 26.625C85.8991 26.8917 86.1908 27.125 86.5574 27.325C86.9241 27.5083 87.4991 27.75 88.2824 28.05L88.9824 28.325C90.1991 28.8083 91.1574 29.2667 91.8574 29.7C92.5574 30.1167 93.0908 30.6333 93.4574 31.25C93.8408 31.8667 94.0324 32.6583 94.0324 33.625C94.0324 35.075 93.4824 36.2333 92.3824 37.1C91.2991 37.95 89.7241 38.375 87.6574 38.375Z" fill="#7B2CBF"/>
</svg>
