<svg width="95" height="39" viewBox="0 0 95 39" fill="none" xmlns="http://www.w3.org/2000/svg">
<path d="M17.4024 17.8311C17.0024 17.8311 16.7108 17.7477 16.5274 17.5811C16.3608 17.3977 16.2774 17.1227 16.2774 16.7561V1.93105C16.2774 1.56439 16.3608 1.28939 16.5274 1.10605C16.7108 0.922721 17.0024 0.831055 17.4024 0.831055H22.6524C25.5024 0.831055 27.6691 1.51439 29.1524 2.88105C30.6358 4.24772 31.3774 6.39772 31.3774 9.33105C31.3774 12.2311 30.6274 14.3727 29.1274 15.7561C27.6274 17.1394 25.4691 17.8311 22.6524 17.8311H17.4024ZM22.8524 14.8061C24.3358 14.8061 25.4441 14.3977 26.1774 13.5811C26.9108 12.7477 27.2774 11.3311 27.2774 9.33105C27.2774 7.33105 26.9108 5.92272 26.1774 5.10605C25.4441 4.28939 24.3358 3.88105 22.8524 3.88105H20.4024V14.8061H22.8524ZM1.50059 37.8311C1.10059 37.8311 0.808919 37.7477 0.625586 37.5811C0.458919 37.3977 0.375586 37.1227 0.375586 36.7561V21.9311C0.375586 21.5644 0.458919 21.2894 0.625586 21.1061C0.808919 20.9227 1.10059 20.8311 1.50059 20.8311H11.8756C12.2756 20.8311 12.5506 20.9144 12.7006 21.0811C12.8506 21.2311 12.9256 21.4977 12.9256 21.8811V22.8061C12.9256 23.1894 12.8506 23.4644 12.7006 23.6311C12.5506 23.7977 12.2756 23.8811 11.8756 23.8811H4.50059V27.8061H9.65059C10.0506 27.8061 10.3256 27.8894 10.4756 28.0561C10.6256 28.2061 10.7006 28.4727 10.7006 28.8561V29.7811C10.7006 30.1644 10.6256 30.4394 10.4756 30.6061C10.3256 30.7727 10.0506 30.8561 9.65059 30.8561H4.50059V36.7561C4.50059 37.1227 4.41725 37.3977 4.25059 37.5811C4.08392 37.7477 3.79225 37.8311 3.37559 37.8311H1.50059Z" fill="#240046"/>
<path d="M33.0411 17.8311C32.6411 17.8311 32.3494 17.7477 32.1661 17.5811C31.9994 17.3977 31.9161 17.1227 31.9161 16.7561V1.93105C31.9161 1.56439 31.9994 1.28939 32.1661 1.10605C32.3494 0.922721 32.6411 0.831055 33.0411 0.831055H43.4161C43.8161 0.831055 44.0911 0.914388 44.2411 1.08105C44.3911 1.23105 44.4661 1.49772 44.4661 1.88105V2.80605C44.4661 3.18939 44.3911 3.46439 44.2411 3.63105C44.0911 3.79772 43.8161 3.88105 43.4161 3.88105H36.0411V7.83105H41.1911C41.5911 7.83105 41.8661 7.91439 42.0161 8.08105C42.1661 8.23105 42.2411 8.49772 42.2411 8.88105V9.75605C42.2411 10.1394 42.1661 10.4144 42.0161 10.5811C41.8661 10.7477 41.5911 10.8311 41.1911 10.8311H36.0411V14.8061H43.3911C43.7911 14.8061 44.0661 14.8894 44.2161 15.0561C44.3661 15.2227 44.4411 15.4977 44.4411 15.8811V16.7811C44.4411 17.1644 44.3661 17.4394 44.2161 17.6061C44.0661 17.7561 43.7911 17.8311 43.3911 17.8311H33.0411ZM51.0368 17.8311C50.7702 17.8311 50.5702 17.7811 50.4368 17.6811C50.3035 17.5811 50.1785 17.3894 50.0618 17.1061L43.7368 1.65605C43.6868 1.50605 43.6618 1.37272 43.6618 1.25605C43.6618 0.972721 43.8118 0.831055 44.1118 0.831055H47.1118C47.3452 0.831055 47.5202 0.881054 47.6368 0.981054C47.7702 1.08105 47.8702 1.22272 47.9368 1.40605L51.9368 12.1311L55.9368 1.40605C56.0702 1.02272 56.3535 0.831055 56.7868 0.831055H59.7868C60.0868 0.831055 60.2368 0.972721 60.2368 1.25605C60.2368 1.37272 60.2118 1.50605 60.1618 1.65605L53.8618 17.1061C53.7452 17.3894 53.6118 17.5811 53.4618 17.6811C53.3285 17.7811 53.1285 17.8311 52.8618 17.8311H51.0368ZM60.4847 6.23105C60.118 6.23105 59.9347 6.08939 59.9347 5.80605C59.9347 5.73939 59.9513 5.63939 59.9847 5.50605L61.2847 1.23105C61.3847 0.914387 61.5013 0.706054 61.6347 0.606054C61.7847 0.506054 62.0263 0.456053 62.3597 0.456053H64.0097C64.5263 0.456053 64.7847 0.606053 64.7847 0.906054C64.7847 1.05605 64.7347 1.24772 64.6347 1.48105L62.8347 5.73105C62.768 5.89772 62.668 6.02272 62.5347 6.10605C62.4013 6.18939 62.218 6.23105 61.9847 6.23105H60.4847ZM71.8562 18.2061C70.5562 18.2061 69.3062 18.0727 68.1062 17.8061C66.9228 17.5227 65.9645 17.1311 65.2312 16.6311C64.9812 16.4477 64.8562 16.2811 64.8562 16.1311C64.8562 16.0311 64.8978 15.9144 64.9812 15.7811L66.0062 14.1561C66.1062 13.9894 66.2145 13.9061 66.3312 13.9061C66.4312 13.9061 66.5562 13.9561 66.7062 14.0561C67.3228 14.4061 68.0312 14.6894 68.8312 14.9061C69.6312 15.1227 70.4395 15.2311 71.2562 15.2311C72.2228 15.2311 72.9395 15.0811 73.4062 14.7811C73.8728 14.4644 74.1062 13.9727 74.1062 13.3061C74.1062 12.8561 73.9895 12.4894 73.7562 12.2061C73.5395 11.9227 73.2062 11.6727 72.7562 11.4561C72.3228 11.2394 71.6478 10.9561 70.7312 10.6061C69.6645 10.2061 68.7562 9.79772 68.0062 9.38105C67.2728 8.96439 66.6645 8.43105 66.1812 7.78105C65.7145 7.11439 65.4812 6.30605 65.4812 5.35605C65.4812 3.77272 66.0562 2.56439 67.2062 1.73105C68.3562 0.881053 69.8728 0.456053 71.7562 0.456053C74.2395 0.456053 76.1395 0.92272 77.4562 1.85605C77.7062 2.05605 77.8312 2.22272 77.8312 2.35605C77.8312 2.45605 77.7895 2.57272 77.7062 2.70605L76.6812 4.33105C76.5812 4.49772 76.4728 4.58105 76.3562 4.58105C76.2562 4.58105 76.1312 4.53105 75.9812 4.43105C74.9645 3.76439 73.7312 3.43105 72.2812 3.43105C70.4812 3.43105 69.5812 4.08105 69.5812 5.38105C69.5812 5.81439 69.6812 6.17272 69.8812 6.45605C70.0978 6.72272 70.3895 6.95605 70.7562 7.15605C71.1228 7.33939 71.6978 7.58105 72.4812 7.88105L73.1812 8.15605C74.3978 8.63939 75.3562 9.09772 76.0562 9.53105C76.7562 9.94772 77.2895 10.4644 77.6562 11.0811C78.0395 11.6977 78.2312 12.4894 78.2312 13.4561C78.2312 14.9061 77.6812 16.0644 76.5812 16.9311C75.4978 17.7811 73.9228 18.2061 71.8562 18.2061ZM14.1119 37.8311C13.7119 37.8311 13.4202 37.7477 13.2369 37.5811C13.0702 37.3977 12.9869 37.1227 12.9869 36.7561V21.9311C12.9869 21.5644 13.0702 21.2894 13.2369 21.1061C13.4202 20.9227 13.7119 20.8311 14.1119 20.8311H20.4369C24.6702 20.8311 26.7869 22.6811 26.7869 26.3811C26.7869 27.5644 26.5369 28.5727 26.0369 29.4061C25.5369 30.2227 24.7952 30.8477 23.8119 31.2811L26.4369 37.0311C26.4869 37.1477 26.5119 37.2644 26.5119 37.3811C26.5119 37.6811 26.3369 37.8311 25.9869 37.8311H23.2119C22.9786 37.8311 22.8036 37.8061 22.6869 37.7561C22.5702 37.6894 22.4702 37.5561 22.3869 37.3561L20.0869 31.8561H17.1119V36.7561C17.1119 37.1227 17.0286 37.3977 16.8619 37.5811C16.6952 37.7477 16.4036 37.8311 15.9869 37.8311H14.1119ZM19.8369 28.8811C20.7869 28.8811 21.4952 28.6811 21.9619 28.2811C22.4452 27.8811 22.6869 27.2477 22.6869 26.3811C22.6869 25.5144 22.4702 24.8811 22.0369 24.4811C21.6036 24.0811 20.9536 23.8811 20.0869 23.8811H17.1119V28.8811H19.8369ZM28.4566 37.8311C28.0566 37.8311 27.765 37.7477 27.5816 37.5811C27.415 37.3977 27.3316 37.1227 27.3316 36.7561V21.9311C27.3316 21.5644 27.415 21.2894 27.5816 21.1061C27.765 20.9227 28.0566 20.8311 28.4566 20.8311H30.3316C30.7483 20.8311 31.04 20.9227 31.2066 21.1061C31.3733 21.2727 31.4566 21.5477 31.4566 21.9311V36.7561C31.4566 37.1227 31.3733 37.3977 31.2066 37.5811C31.04 37.7477 30.7483 37.8311 30.3316 37.8311H28.4566ZM33.6217 37.8311C33.2217 37.8311 32.93 37.7477 32.7467 37.5811C32.58 37.3977 32.4967 37.1227 32.4967 36.7561V21.9311C32.4967 21.5644 32.58 21.2894 32.7467 21.1061C32.93 20.9227 33.2217 20.8311 33.6217 20.8311H43.9967C44.3967 20.8311 44.6717 20.9144 44.8217 21.0811C44.9717 21.2311 45.0467 21.4977 45.0467 21.8811V22.8061C45.0467 23.1894 44.9717 23.4644 44.8217 23.6311C44.6717 23.7977 44.3967 23.8811 43.9967 23.8811H36.6217V27.8311H41.7717C42.1717 27.8311 42.4467 27.9144 42.5967 28.0811C42.7467 28.2311 42.8217 28.4977 42.8217 28.8811V29.7561C42.8217 30.1394 42.7467 30.4144 42.5967 30.5811C42.4467 30.7477 42.1717 30.8311 41.7717 30.8311H36.6217V34.8061H43.9717C44.3717 34.8061 44.6467 34.8894 44.7967 35.0561C44.9467 35.2227 45.0217 35.4977 45.0217 35.8811V36.7811C45.0217 37.1644 44.9467 37.4394 44.7967 37.6061C44.6467 37.7561 44.3717 37.8311 43.9717 37.8311H33.6217ZM46.4771 37.8311C46.0771 37.8311 45.7855 37.7477 45.6021 37.5811C45.4355 37.3977 45.3521 37.1227 45.3521 36.7561V21.9061C45.3521 21.5394 45.4355 21.2727 45.6021 21.1061C45.7855 20.9227 46.0855 20.8311 46.5021 20.8311H48.0521C48.3355 20.8311 48.5438 20.8727 48.6771 20.9561C48.8271 21.0227 48.9855 21.1644 49.1521 21.3811L56.1521 31.2561V21.9311C56.1521 21.5644 56.2355 21.2894 56.4021 21.1061C56.5855 20.9227 56.8771 20.8311 57.2771 20.8311H59.1521C59.5688 20.8311 59.8605 20.9227 60.0271 21.1061C60.1938 21.2727 60.2771 21.5477 60.2771 21.9311V36.7561C60.2771 37.1227 60.1938 37.3977 60.0271 37.5811C59.8605 37.7477 59.5688 37.8311 59.1521 37.8311H57.5771C57.3105 37.8311 57.1021 37.7977 56.9521 37.7311C56.8188 37.6477 56.6688 37.4977 56.5021 37.2811L49.4771 27.4311V36.7561C49.4771 37.1227 49.3938 37.3977 49.2271 37.5811C49.0605 37.7477 48.7688 37.8311 48.3521 37.8311H46.4771ZM62.4576 37.8311C62.0576 37.8311 61.766 37.7477 61.5826 37.5811C61.416 37.3977 61.3326 37.1227 61.3326 36.7561V21.9311C61.3326 21.5644 61.416 21.2894 61.5826 21.1061C61.766 20.9227 62.0576 20.8311 62.4576 20.8311H67.7076C70.5576 20.8311 72.7243 21.5144 74.2076 22.8811C75.691 24.2477 76.4326 26.3977 76.4326 29.3311C76.4326 32.2311 75.6826 34.3727 74.1826 35.7561C72.6826 37.1394 70.5243 37.8311 67.7076 37.8311H62.4576ZM67.9076 34.8061C69.391 34.8061 70.4993 34.3977 71.2326 33.5811C71.966 32.7477 72.3326 31.3311 72.3326 29.3311C72.3326 27.3311 71.966 25.9227 71.2326 25.1061C70.4993 24.2894 69.391 23.8811 67.9076 23.8811H65.4576V34.8061H67.9076ZM76.3865 26.2311C76.0199 26.2311 75.8365 26.0894 75.8365 25.8061C75.8365 25.7394 75.8532 25.6394 75.8865 25.5061L77.1865 21.2311C77.2865 20.9144 77.4032 20.7061 77.5365 20.6061C77.6865 20.5061 77.9282 20.4561 78.2615 20.4561H79.9115C80.4282 20.4561 80.6865 20.6061 80.6865 20.9061C80.6865 21.0561 80.6365 21.2477 80.5365 21.4811L78.7365 25.7311C78.6699 25.8977 78.5699 26.0227 78.4365 26.1061C78.3032 26.1894 78.1199 26.2311 77.8865 26.2311H76.3865ZM87.758 38.2061C86.458 38.2061 85.208 38.0727 84.008 37.8061C82.8247 37.5227 81.8663 37.1311 81.133 36.6311C80.883 36.4477 80.758 36.2811 80.758 36.1311C80.758 36.0311 80.7997 35.9144 80.883 35.7811L81.908 34.1561C82.008 33.9894 82.1163 33.9061 82.233 33.9061C82.333 33.9061 82.458 33.9561 82.608 34.0561C83.2247 34.4061 83.933 34.6894 84.733 34.9061C85.533 35.1227 86.3413 35.2311 87.158 35.2311C88.1247 35.2311 88.8413 35.0811 89.308 34.7811C89.7747 34.4644 90.008 33.9727 90.008 33.3061C90.008 32.8561 89.8913 32.4894 89.658 32.2061C89.4413 31.9227 89.108 31.6727 88.658 31.4561C88.2247 31.2394 87.5497 30.9561 86.633 30.6061C85.5663 30.2061 84.658 29.7977 83.908 29.3811C83.1747 28.9644 82.5663 28.4311 82.083 27.7811C81.6163 27.1144 81.383 26.3061 81.383 25.3561C81.383 23.7727 81.958 22.5644 83.108 21.7311C84.258 20.8811 85.7747 20.4561 87.658 20.4561C90.1413 20.4561 92.0413 20.9227 93.358 21.8561C93.608 22.0561 93.733 22.2227 93.733 22.3561C93.733 22.4561 93.6913 22.5727 93.608 22.7061L92.583 24.3311C92.483 24.4977 92.3747 24.5811 92.258 24.5811C92.158 24.5811 92.033 24.5311 91.883 24.4311C90.8663 23.7644 89.633 23.4311 88.183 23.4311C86.383 23.4311 85.483 24.0811 85.483 25.3811C85.483 25.8144 85.583 26.1727 85.783 26.4561C85.9997 26.7227 86.2913 26.9561 86.658 27.1561C87.0247 27.3394 87.5997 27.5811 88.383 27.8811L89.083 28.1561C90.2997 28.6394 91.258 29.0977 91.958 29.5311C92.658 29.9477 93.1913 30.4644 93.558 31.0811C93.9413 31.6977 94.133 32.4894 94.133 33.4561C94.133 34.9061 93.583 36.0644 92.483 36.9311C91.3997 37.7811 89.8247 38.2061 87.758 38.2061Z" fill="#7B2CBF"/>
</svg>
