<svg width="16" height="34" viewBox="0 0 16 34" fill="none" xmlns="http://www.w3.org/2000/svg">
<path d="M1.26133 17C0.861328 17 0.569662 16.9167 0.386328 16.75C0.219662 16.5667 0.136328 16.2917 0.136328 15.925V1.1C0.136328 0.733332 0.219662 0.458332 0.386328 0.274999C0.569662 0.0916663 0.861328 -1.78814e-07 1.26133 -1.78814e-07H6.51133C9.36133 -1.78814e-07 11.528 0.683333 13.0113 2.05C14.4947 3.41667 15.2363 5.56667 15.2363 8.5C15.2363 11.4 14.4863 13.5417 12.9863 14.925C11.4863 16.3083 9.328 17 6.51133 17H1.26133ZM6.71133 13.975C8.19466 13.975 9.303 13.5667 10.0363 12.75C10.7697 11.9167 11.1363 10.5 11.1363 8.5C11.1363 6.5 10.7697 5.09167 10.0363 4.275C9.303 3.45833 8.19466 3.05 6.71133 3.05H4.26133V13.975H6.71133ZM4.28867 34C3.88867 34 3.59701 33.9167 3.41367 33.75C3.24701 33.5667 3.16367 33.2917 3.16367 32.925V18.1C3.16367 17.7333 3.24701 17.4583 3.41367 17.275C3.59701 17.0917 3.88867 17 4.28867 17H14.6637C15.0637 17 15.3387 17.0833 15.4887 17.25C15.6387 17.4 15.7137 17.6667 15.7137 18.05V18.975C15.7137 19.3583 15.6387 19.6333 15.4887 19.8C15.3387 19.9667 15.0637 20.05 14.6637 20.05H7.28867V23.975H12.4387C12.8387 23.975 13.1137 24.0583 13.2637 24.225C13.4137 24.375 13.4887 24.6417 13.4887 25.025V25.95C13.4887 26.3333 13.4137 26.6083 13.2637 26.775C13.1137 26.9417 12.8387 27.025 12.4387 27.025H7.28867V32.925C7.28867 33.2917 7.20534 33.5667 7.03867 33.75C6.87201 33.9167 6.58034 34 6.16367 34H4.28867Z" fill="#240046"/>
</svg>
