<svg width="30" height="31" viewBox="0 0 30 31" fill="none" xmlns="http://www.w3.org/2000/svg">
<g clip-path="url(#clip0)">
<path d="M14.9981 0.780518C6.71625 0.780518 0 7.52302 0 15.8405C0 22.493 4.2975 28.1368 10.26 30.1299C11.01 30.2686 11.2838 29.8036 11.2838 29.4043C11.2838 29.0461 11.2706 28.0993 11.2631 26.843C7.09125 27.7524 6.21 24.8236 6.21 24.8236C5.52938 23.0836 4.545 22.6205 4.545 22.6205C3.18188 21.6868 4.64625 21.7055 4.64625 21.7055C6.15187 21.8124 6.94313 23.258 6.94313 23.258C8.28188 25.5586 10.455 24.8949 11.31 24.5086C11.445 23.5355 11.8331 22.8718 12.2625 22.4949C8.9325 22.1143 5.43 20.8224 5.43 15.053C5.43 13.4086 6.015 12.0643 6.975 11.0105C6.81938 10.6299 6.30563 9.09802 7.12125 7.02614C7.12125 7.02614 8.38125 6.62114 11.2463 8.56927C12.4425 8.23552 13.725 8.06864 15.0019 8.06302C16.275 8.07052 17.5594 8.23552 18.7575 8.57114C21.6206 6.62302 22.8787 7.02802 22.8787 7.02802C23.6962 9.10177 23.1825 10.6318 23.0287 11.0124C23.9906 12.0661 24.57 13.4105 24.57 15.0549C24.57 20.8393 21.0637 22.1124 17.7225 22.4855C18.2606 22.9505 18.7406 23.8693 18.7406 25.2736C18.7406 27.2874 18.7219 28.9111 18.7219 29.4043C18.7219 29.8074 18.9919 30.2761 19.7531 30.128C25.7062 28.133 30 22.4911 30 15.8405C30 7.52302 23.2838 0.780518 14.9981 0.780518Z" fill="#7B2CBF"/>
</g>
<defs>
<clipPath id="clip0">
<rect width="30" height="30" fill="white" transform="translate(0 0.468262)"/>
</clipPath>
</defs>
</svg>
