<svg width="30" height="31" viewBox="0 0 30 31" fill="none" xmlns="http://www.w3.org/2000/svg">
<g clip-path="url(#clip0)">
<path d="M29.9694 9.28834C29.8991 7.69433 29.6413 6.59846 29.2721 5.64887C28.8911 4.64091 28.3051 3.73848 27.5372 2.98829C26.7871 2.22642 25.8787 1.63441 24.8824 1.25943C23.9273 0.890173 22.8372 0.632402 21.2431 0.562122C19.6372 0.485889 19.1274 0.468262 15.0543 0.468262C10.9813 0.468262 10.4715 0.485889 8.87149 0.55617C7.27747 0.62645 6.1816 0.88445 5.23224 1.25348C4.22405 1.63441 3.32162 2.22047 2.57142 2.98829C1.80956 3.73848 1.21778 4.64686 0.84257 5.64315C0.473311 6.59846 0.21554 7.68838 0.145259 9.28239C0.0690266 10.8883 0.0513992 11.3981 0.0513992 15.4712C0.0513992 19.5443 0.0690266 20.0541 0.139307 21.654C0.209588 23.2481 0.467588 24.3439 0.836847 25.2935C1.21778 26.3015 1.80956 27.2039 2.57142 27.9541C3.32162 28.716 4.23 29.308 5.22629 29.683C6.1816 30.0522 7.27152 30.31 8.86576 30.3803C10.4655 30.4508 10.9756 30.4682 15.0486 30.4682C19.1217 30.4682 19.6315 30.4508 21.2315 30.3803C22.8255 30.31 23.9214 30.0522 24.8707 29.683C26.8869 28.9035 28.4809 27.3094 29.2604 25.2935C29.6294 24.3382 29.8874 23.2481 29.9577 21.654C30.028 20.0541 30.0456 19.5443 30.0456 15.4712C30.0456 11.3981 30.0396 10.8883 29.9694 9.28834ZM27.2678 21.5368C27.2032 23.002 26.9571 23.7931 26.752 24.3206C26.2479 25.6275 25.2107 26.6648 23.9037 27.1689C23.3763 27.374 22.5794 27.6201 21.12 27.6844C19.5376 27.7549 19.0631 27.7723 15.0603 27.7723C11.0575 27.7723 10.577 27.7549 9.00037 27.6844C7.53524 27.6201 6.74407 27.374 6.21662 27.1689C5.56624 26.9285 4.97424 26.5476 4.49372 26.0494C3.99558 25.563 3.61464 24.9769 3.37427 24.3265C3.16915 23.7991 2.92306 23.002 2.85873 21.5428C2.78822 19.9604 2.77082 19.4856 2.77082 15.4829C2.77082 11.4801 2.78822 10.9996 2.85873 9.42318C2.92306 7.95805 3.16915 7.16688 3.37427 6.63943C3.61464 5.98883 3.99558 5.39705 4.49967 4.9163C4.98591 4.41816 5.57197 4.03723 6.22258 3.79708C6.75002 3.59196 7.54714 3.34587 9.00632 3.28131C10.5887 3.21103 11.0635 3.1934 15.066 3.1934C19.0747 3.1934 19.5493 3.21103 21.1259 3.28131C22.5911 3.34587 23.3822 3.59196 23.9097 3.79708C24.5601 4.03723 25.1521 4.41816 25.6326 4.9163C26.1307 5.40277 26.5117 5.98883 26.752 6.63943C26.9571 7.16688 27.2032 7.96377 27.2678 9.42318C27.3381 11.0055 27.3557 11.4801 27.3557 15.4829C27.3557 19.4856 27.3381 19.9545 27.2678 21.5368Z" fill="#7B2CBF"/>
<path d="M15.0556 7.76465C10.801 7.76465 7.34904 11.2164 7.34904 15.4712C7.34904 19.7261 10.801 23.1778 15.0556 23.1778C19.3105 23.1778 22.7622 19.7261 22.7622 15.4712C22.7622 11.2164 19.3105 7.76465 15.0556 7.76465ZM15.0556 20.4703C12.2955 20.4703 10.0566 18.2316 10.0566 15.4712C10.0566 12.7108 12.2955 10.4722 15.0556 10.4722C17.816 10.4722 20.0547 12.7108 20.0547 15.4712C20.0547 18.2316 17.816 20.4703 15.0556 20.4703V20.4703Z" fill="#7B2CBF"/>
<path d="M24.8663 7.4599C24.8663 8.45344 24.0607 9.25903 23.0669 9.25903C22.0734 9.25903 21.2678 8.45344 21.2678 7.4599C21.2678 6.46613 22.0734 5.66077 23.0669 5.66077C24.0607 5.66077 24.8663 6.46613 24.8663 7.4599V7.4599Z" fill="#7B2CBF"/>
</g>
<defs>
<clipPath id="clip0">
<rect width="30" height="30" fill="white" transform="translate(0 0.468262)"/>
</clipPath>
</defs>
</svg>
